<?xml version="1.0" encoding="UTF-8"?>
<svg width="87px" height="28px" viewBox="0 0 87 28" version="1.1" xmlns="http://www.w3.org/2000/svg" xmlns:xlink="http://www.w3.org/1999/xlink">
    <title>logo-dark</title>
    <g id="Style" stroke="none" stroke-width="1" fill="none" fill-rule="evenodd">
        <g id="logo-dark" fill-rule="nonzero">
            <path d="M44.9,21.22 C46.5133333,21.22 47.8266667,20.8333333 48.84,20.06 C49.88,19.2733333 50.4,18.1333333 50.4,16.64 C50.4,15.3866667 49.98,14.4533333 49.14,13.84 C48.3133333,13.2133333 47.04,12.68 45.32,12.24 C44.2266667,11.9866667 43.46,11.7333333 43.02,11.48 C42.6066667,11.2266667 42.4,10.8333333 42.4,10.3 C42.4,9.75333333 42.5966667,9.31666667 42.99,8.99 C43.3833333,8.66333333 43.9266667,8.5 44.62,8.5 C45.3266667,8.5 45.8866667,8.68666667 46.3,9.06 C46.7133333,9.43333333 46.9266667,9.94 46.94,10.58 L46.94,10.58 L50.1,10.42 C50.06,8.99333333 49.5333333,7.87333333 48.52,7.06 C47.5066667,6.23333333 46.1866667,5.82 44.56,5.82 C42.8533333,5.82 41.54,6.26 40.62,7.14 C39.7,8.00666667 39.24,9.09333333 39.24,10.4 C39.24,11.7866667 39.7333333,12.8 40.72,13.44 C41.28,13.7866667 41.7866667,14.04 42.24,14.2 C42.6933333,14.36 43.34,14.5466667 44.18,14.76 C45.34,15.0533333 46.1433333,15.3433333 46.59,15.63 C47.0366667,15.9166667 47.26,16.3133333 47.26,16.82 C47.26,17.9666667 46.4733333,18.54 44.9,18.54 C44.0866667,18.54 43.4133333,18.33 42.88,17.91 C42.3466667,17.49 42.0666667,16.94 42.04,16.26 L42.04,16.26 L38.9,16.42 C38.9133333,17.94 39.4733333,19.12 40.58,19.96 C41.6866667,20.8 43.1266667,21.22 44.9,21.22 Z M57.1,21.2 C57.62,21.2 58.16,21.16 58.72,21.08 L58.72,21.08 L58.72,18.48 C58.2933333,18.5466667 57.9933333,18.58 57.82,18.58 C57.3533333,18.58 56.9766667,18.4466667 56.69,18.18 C56.4033333,17.9133333 56.26,17.5266667 56.26,17.02 L56.26,17.02 L56.28,13.18 L58.72,13.18 L58.72,10.66 L56.3,10.66 L56.32,7.24 L53.4,7.24 L53.38,10.66 L51.48,10.66 L51.48,13.18 L53.36,13.18 L53.34,17.72 C53.3266667,18.8533333 53.65,19.7166667 54.31,20.31 C54.97,20.9033333 55.9,21.2 57.1,21.2 Z M64.5,21.22 C65.7666667,21.22 66.66,20.8 67.18,19.96 L67.18,19.96 L67.18,21 L69.94,21 L69.94,10.66 L67.02,10.66 L67.02,16.5 C67.02,17.1 66.8633333,17.5833333 66.55,17.95 C66.2366667,18.3166667 65.8066667,18.5 65.26,18.5 C64.1533333,18.5 63.6,17.8466667 63.6,16.54 L63.6,16.54 L63.6,10.66 L60.68,10.66 L60.68,17.16 C60.68,18.4266667 61.02,19.42 61.7,20.14 C62.38,20.86 63.3133333,21.22 64.5,21.22 Z M76.26,21 L76.26,13.18 L78.66,13.18 L78.66,10.66 L76.26,10.66 L76.26,9.52 C76.26,9.02666667 76.4233333,8.63 76.75,8.33 C77.0766667,8.03 77.4933333,7.88 78,7.88 C78.1333333,7.88 78.36,7.89333333 78.68,7.92 L78.68,7.92 L78.68,5.4 C78.3733333,5.36 78.0333333,5.34 77.66,5.34 C76.34,5.34 75.2933333,5.72666667 74.52,6.5 C73.7466667,7.27333333 73.36,8.30666667 73.36,9.6 L73.36,9.6 L73.36,10.66 L71.48,10.66 L71.48,13.18 L73.36,13.18 L73.36,21 L76.26,21 Z M83.86,21 L83.86,13.18 L86.26,13.18 L86.26,10.66 L83.86,10.66 L83.86,9.52 C83.86,9.02666667 84.0233333,8.63 84.35,8.33 C84.6766667,8.03 85.0933333,7.88 85.6,7.88 C85.7333333,7.88 85.96,7.89333333 86.28,7.92 L86.28,7.92 L86.28,5.4 C85.9733333,5.36 85.6333333,5.34 85.26,5.34 C83.94,5.34 82.8933333,5.72666667 82.12,6.5 C81.3466667,7.27333333 80.96,8.30666667 80.96,9.6 L80.96,9.6 L80.96,10.66 L79.08,10.66 L79.08,13.18 L80.96,13.18 L80.96,21 L83.86,21 Z" id="Stuff" fill="#171725"></path>
            <g id="Group" fill="#0069FF">
                <path d="M20,0 C24.418278,0 28,3.581722 28,8 L28,20 C28,24.418278 24.418278,28 20,28 L8,28 C3.581722,28 0,24.418278 0,20 L0,8 C0,3.581722 3.581722,0 8,0 L20,0 Z M20,4 L14.7450814,3.99967126 C15.5360955,5.13356694 16,6.51260812 16,8 L16,10 C16,13.8659932 12.8659932,17 9,17 L7,17 C5.9265078,17 4.90945451,16.7583563 4.00026701,16.3264957 L4,20 C4,22.1421954 5.68396847,23.8910789 7.80035966,23.9951047 L8,24 L20,24 C22.1421954,24 23.8910789,22.3160315 23.9951047,20.1996403 L24,20 L24,8 C24,5.85780461 22.3160315,4.10892112 20.1996403,4.00489531 L20,4 Z M9,5 L7,5 C5.40231912,5 4.09633912,6.24891996 4.00509269,7.82372721 L4,8 L4,10 C4,11.5976809 5.24891996,12.9036609 6.82372721,12.9949073 L7,13 L9,13 C10.5976809,13 11.9036609,11.75108 11.9949073,10.1762728 L12,10 L12,8 C12,6.40231912 10.75108,5.09633912 9.17627279,5.00509269 L9,5 Z" id="Combined-Shape"></path>
            </g>
        </g>
    </g>
</svg>